<svg xmlns="http://www.w3.org/2000/svg" viewBox="0 0 31.07 29.05"><defs><style>.cls-1{fill:#3fa9f5;}.cls-2{fill:#fff;}</style></defs><title>moleculas</title><g id="Camada_2" data-name="Camada 2"><g id="Camada_1-2" data-name="Camada 1"><path class="cls-1" d="M15.34,15.34A7.67,7.67,0,1,1,23,7.67,7.68,7.68,0,0,1,15.34,15.34Zm0-14.59a6.92,6.92,0,1,0,6.92,6.92A6.92,6.92,0,0,0,15.34.75Z"/><circle class="cls-1" cx="15.34" cy="7.67" r="3.18"/><path class="cls-1" d="M23.4,29.05a7.67,7.67,0,1,1,7.67-7.67A7.68,7.68,0,0,1,23.4,29.05Zm0-14.59a6.92,6.92,0,1,0,6.92,6.92A6.92,6.92,0,0,0,23.4,14.46Z"/><circle class="cls-1" cx="23.4" cy="21.38" r="3.18"/><path class="cls-1" d="M7.67,29.05a7.67,7.67,0,1,1,7.67-7.67A7.68,7.68,0,0,1,7.67,29.05Zm0-14.59a6.92,6.92,0,1,0,6.92,6.92A6.92,6.92,0,0,0,7.67,14.46Z"/><circle class="cls-1" cx="7.67" cy="21.38" r="3.18"/><rect class="cls-1" x="16.95" y="13.2" width="4.88" height="2.44" rx="1.06" transform="translate(20.85 -9.7) rotate(56.83)"/><path class="cls-2" d="M20,17a1.3,1.3,0,0,1-1.09-.6L17.4,14.07a1.31,1.31,0,0,1,.38-1.81l.27-.18a1.3,1.3,0,0,1,1.81.38l1.52,2.31A1.33,1.33,0,0,1,21,16.59l-.27.17A1.27,1.27,0,0,1,20,17Zm-.68-.87a.81.81,0,0,0,1.12.23l.28-.17A.82.82,0,0,0,21,15.05l-1.51-2.32a.81.81,0,0,0-1.12-.23l-.28.17a.82.82,0,0,0-.23,1.12Z"/><rect class="cls-1" x="8.85" y="13.37" width="4.88" height="2.44" rx="1.06" transform="translate(29.68 13.12) rotate(123.17)"/><path class="cls-2" d="M10,16.93l-.27-.18a1.31,1.31,0,0,1-.38-1.81l1.51-2.31a1.31,1.31,0,0,1,1.82-.38l.27.17a1.32,1.32,0,0,1,.38,1.81l-1.52,2.32a1.29,1.29,0,0,1-1.09.59A1.34,1.34,0,0,1,10,16.93Zm2.91-3a.81.81,0,0,0-.24-1.12l-.27-.18a.81.81,0,0,0-1.12.24L9.72,15.21A.8.8,0,0,0,10,16.33l.28.18a.79.79,0,0,0,1.11-.23Z"/><rect class="cls-1" x="13.05" y="20.59" width="4.88" height="2.44" rx="1.06"/><path class="cls-2" d="M18,22.69a1.31,1.31,0,0,1-1.1.59H14.1A1.31,1.31,0,0,1,12.8,22v-.32a1.31,1.31,0,0,1,1.31-1.31h2.76a1.31,1.31,0,0,1,1.31,1.31V22A1.34,1.34,0,0,1,18,22.69Zm-1.1.09a.81.81,0,0,0,.81-.81v-.32a.81.81,0,0,0-.81-.81H14.1a.8.8,0,0,0-.8.81V22a.8.8,0,0,0,.8.81Z"/></g></g></svg>