<svg xmlns="http://www.w3.org/2000/svg" viewBox="0 0 29.78 29.78"><defs><style>.cls-1{fill:#3fa9f5;}</style></defs><title>organisms</title><g id="Camada_2" data-name="Camada 2"><g id="Camada_1-2" data-name="Camada 1"><path class="cls-1" d="M5,9.93a5,5,0,1,1,5-5A5,5,0,0,1,5,9.93ZM5,.75A4.22,4.22,0,1,0,9.18,5,4.22,4.22,0,0,0,5,.75Z"/><circle class="cls-1" cx="4.96" cy="4.96" r="2.07"/><path class="cls-1" d="M14.89,9.93a5,5,0,1,1,5-5A5,5,0,0,1,14.89,9.93Zm0-9.18A4.22,4.22,0,1,0,19.1,5,4.22,4.22,0,0,0,14.89.75Z"/><circle class="cls-1" cx="14.89" cy="4.96" r="2.07"/><path class="cls-1" d="M24.82,9.93a5,5,0,1,1,5-5A5,5,0,0,1,24.82,9.93Zm0-9.18A4.22,4.22,0,1,0,29,5,4.22,4.22,0,0,0,24.82.75Z"/><circle class="cls-1" cx="24.82" cy="4.96" r="2.07"/><path class="cls-1" d="M5,19.85a5,5,0,1,1,5-5A5,5,0,0,1,5,19.85Zm0-9.17a4.21,4.21,0,1,0,4.22,4.21A4.22,4.22,0,0,0,5,10.68Z"/><circle class="cls-1" cx="4.96" cy="14.89" r="2.07"/><path class="cls-1" d="M14.89,19.85a5,5,0,1,1,5-5A5,5,0,0,1,14.89,19.85Zm0-9.17a4.21,4.21,0,1,0,4.21,4.21A4.22,4.22,0,0,0,14.89,10.68Z"/><circle class="cls-1" cx="14.89" cy="14.89" r="2.07"/><path class="cls-1" d="M24.82,19.85a5,5,0,1,1,5-5A5,5,0,0,1,24.82,19.85Zm0-9.17A4.21,4.21,0,1,0,29,14.89,4.22,4.22,0,0,0,24.82,10.68Z"/><circle class="cls-1" cx="24.82" cy="14.89" r="2.07"/><path class="cls-1" d="M5,29.78a5,5,0,1,1,5-5A5,5,0,0,1,5,29.78ZM5,20.6a4.22,4.22,0,1,0,4.22,4.22A4.22,4.22,0,0,0,5,20.6Z"/><circle class="cls-1" cx="4.96" cy="24.82" r="2.07"/><path class="cls-1" d="M14.89,29.78a5,5,0,1,1,5-5A5,5,0,0,1,14.89,29.78Zm0-9.18a4.22,4.22,0,1,0,4.21,4.22A4.22,4.22,0,0,0,14.89,20.6Z"/><circle class="cls-1" cx="14.89" cy="24.82" r="2.07"/><path class="cls-1" d="M24.82,29.78a5,5,0,1,1,5-5A5,5,0,0,1,24.82,29.78Zm0-9.18A4.22,4.22,0,1,0,29,24.82,4.22,4.22,0,0,0,24.82,20.6Z"/><circle class="cls-1" cx="24.82" cy="24.82" r="2.07"/></g></g></svg>