<svg xmlns="http://www.w3.org/2000/svg" viewBox="0 0 23.3 29.37"><defs><style>.cls-1{fill:#3fa9f5;}</style></defs><title>Pages</title><g id="Camada_2" data-name="Camada 2"><g id="Camada_1-2" data-name="Camada 1"><path class="cls-1" d="M21.37,0H6.56A1.52,1.52,0,0,0,5.05,1.51V6.12H1.51A1.52,1.52,0,0,0,0,7.63V27.44a1.94,1.94,0,0,0,1.93,1.93H16.32a1.94,1.94,0,0,0,1.93-1.93V23.25h3.12a1.94,1.94,0,0,0,1.93-1.93V1.93A1.94,1.94,0,0,0,21.37,0ZM17,27.44a.69.69,0,0,1-.68.68H1.93a.69.69,0,0,1-.68-.68V7.63a.26.26,0,0,1,.26-.26H16.32a.68.68,0,0,1,.68.68Zm5.05-6.12a.69.69,0,0,1-.68.68H18.25V8.05a1.93,1.93,0,0,0-1.93-1.93H6.3V1.51a.26.26,0,0,1,.26-.26H21.37a.69.69,0,0,1,.68.68Z"/></g></g></svg>